<svg width="20" height="20" viewBox="0 0 20 20" fill="none" xmlns="http://www.w3.org/2000/svg">
<path d="M3.125 0C2.9175 0 2.7125 0.02 2.51625 0.06L2.75875 1.285C2.8794 1.26143 3.00207 1.24971 3.125 1.25H3.6975V0H3.125ZM5.99 0H4.84375V1.25H5.99V0ZM8.28125 0H7.135V1.25H8.28125V0ZM10.5725 0H9.4275V1.25H10.5725V0ZM12.865 0H11.7188V1.25H12.865V0ZM15.1562 0H14.01V1.25H15.1562V0ZM16.875 0H16.3025V1.25H16.875C17 1.25 17.1238 1.2625 17.2413 1.28625L17.4838 0.06C17.2833 0.0202198 17.0794 0.000124313 16.875 0ZM19.4738 1.3875C19.2453 1.04682 18.9523 0.754216 18.6112 0.52625L17.9163 1.565C18.1213 1.7025 18.2975 1.87875 18.435 2.08375L19.4725 1.38875L19.4738 1.3875ZM1.3875 0.52625C1.04682 0.754711 0.754216 1.04773 0.52625 1.38875L1.565 2.08375C1.7025 1.87875 1.87875 1.7025 2.08375 1.565L1.3875 0.5275V0.52625ZM20 3.125C20 2.9175 19.98 2.7125 19.94 2.51625L18.715 2.75875C18.7375 2.87625 18.75 2.99875 18.75 3.125V3.6975H20V3.125ZM0.06 2.51625C0.0202198 2.71673 0.000124313 2.92061 0 3.125L0 3.6975H1.25V3.125C1.25 3 1.2625 2.87625 1.28625 2.75875L0.06 2.51625ZM0 4.84375V5.99H1.25V4.84375H0ZM20 5.99V4.84375H18.75V5.99H20ZM0 7.135V8.28125H1.25V7.135H0ZM20 8.28125V7.135H18.75V8.28125H20ZM0 9.4275V10.5725H1.25V9.4275H0ZM18.75 10.5725H20V9.4275H18.75V10.5725ZM0 11.7188V12.865H1.25V11.7188H0ZM20 12.865V11.7188H18.75V12.865H20ZM0 14.01V15.1562H1.25V14.01H0ZM20 15.1562V14.01H18.75V15.1562H20ZM0 16.3025V16.875C0 17.0825 0.02 17.2875 0.06 17.4838L1.285 17.2413C1.26143 17.1206 1.24971 16.9979 1.25 16.875V16.3025H0ZM20 16.875V16.3025H18.75V16.875C18.75 17 18.7375 17.1238 18.7137 17.2413L19.94 17.4838C19.98 17.2863 20 17.0837 20 16.875ZM0.52625 18.6125C0.755 18.9525 1.0475 19.245 1.38875 19.4738L2.08375 18.435C1.87857 18.2977 1.70232 18.1214 1.565 17.9163L0.5275 18.6112L0.52625 18.6125ZM18.6125 19.4738C18.9525 19.245 19.245 18.9525 19.4738 18.6112L18.435 17.9163C18.2975 18.1213 18.1213 18.2975 17.9163 18.435L18.6112 19.4725L18.6125 19.4738ZM2.51625 19.94C2.71375 19.98 2.91625 20 3.125 20H3.6975V18.75H3.125C3 18.75 2.87625 18.7375 2.75875 18.7137L2.51625 19.94ZM16.875 20C17.0825 20 17.2875 19.98 17.4838 19.94L17.2413 18.715C17.1206 18.7386 16.9979 18.7503 16.875 18.75H16.3025V20H16.875ZM4.84375 20H5.99V18.75H4.84375V20ZM7.135 20H8.28125V18.75H7.135V20ZM9.4275 18.75V20H10.5725V18.75H9.4275ZM11.7188 20H12.865V18.75H11.7188V20ZM14.01 20H15.1562V18.75H14.01V20ZM10.625 5.625C10.625 5.45924 10.5592 5.30027 10.4419 5.18306C10.3247 5.06585 10.1658 5 10 5C9.83424 5 9.67527 5.06585 9.55806 5.18306C9.44085 5.30027 9.375 5.45924 9.375 5.625V9.375H5.625C5.45924 9.375 5.30027 9.44085 5.18306 9.55806C5.06585 9.67527 5 9.83424 5 10C5 10.1658 5.06585 10.3247 5.18306 10.4419C5.30027 10.5592 5.45924 10.625 5.625 10.625H9.375V14.375C9.375 14.5408 9.44085 14.6997 9.55806 14.8169C9.67527 14.9342 9.83424 15 10 15C10.1658 15 10.3247 14.9342 10.4419 14.8169C10.5592 14.6997 10.625 14.5408 10.625 14.375V10.625H14.375C14.5408 10.625 14.6997 10.5592 14.8169 10.4419C14.9342 10.3247 15 10.1658 15 10C15 9.83424 14.9342 9.67527 14.8169 9.55806C14.6997 9.44085 14.5408 9.375 14.375 9.375H10.625V5.625Z" fill="black"/>
</svg>
