<svg width="16" height="16" viewBox="0 0 16 16" fill="none" xmlns="http://www.w3.org/2000/svg">
<path d="M0.682313 1.56731C0.624203 1.5092 0.578108 1.44022 0.546659 1.36429C0.51521 1.28837 0.499023 1.20699 0.499023 1.12481C0.499023 1.04263 0.51521 0.961258 0.546659 0.885334C0.578108 0.809409 0.624203 0.740423 0.682313 0.682313C0.740423 0.624203 0.809409 0.578108 0.885334 0.546659C0.961258 0.51521 1.04263 0.499023 1.12481 0.499023C1.20699 0.499023 1.28837 0.51521 1.36429 0.546659C1.44022 0.578108 1.5092 0.624203 1.56731 0.682313L7.99981 7.11606L14.4323 0.682313C14.4904 0.624203 14.5594 0.578108 14.6353 0.546659C14.7113 0.51521 14.7926 0.499023 14.8748 0.499023C14.957 0.499023 15.0384 0.51521 15.1143 0.546659C15.1902 0.578108 15.2592 0.624203 15.3173 0.682313C15.3754 0.740423 15.4215 0.809409 15.453 0.885334C15.4844 0.961258 15.5006 1.04263 15.5006 1.12481C15.5006 1.20699 15.4844 1.28837 15.453 1.36429C15.4215 1.44022 15.3754 1.5092 15.3173 1.56731L8.88356 7.99981L15.3173 14.4323C15.3754 14.4904 15.4215 14.5594 15.453 14.6353C15.4844 14.7113 15.5006 14.7926 15.5006 14.8748C15.5006 14.957 15.4844 15.0384 15.453 15.1143C15.4215 15.1902 15.3754 15.2592 15.3173 15.3173C15.2592 15.3754 15.1902 15.4215 15.1143 15.453C15.0384 15.4844 14.957 15.5006 14.8748 15.5006C14.7926 15.5006 14.7113 15.4844 14.6353 15.453C14.5594 15.4215 14.4904 15.3754 14.4323 15.3173L7.99981 8.88356L1.56731 15.3173C1.5092 15.3754 1.44022 15.4215 1.36429 15.453C1.28837 15.4844 1.20699 15.5006 1.12481 15.5006C1.04263 15.5006 0.961258 15.4844 0.885334 15.453C0.809409 15.4215 0.740423 15.3754 0.682313 15.3173C0.624203 15.2592 0.578108 15.1902 0.546659 15.1143C0.51521 15.0384 0.499023 14.957 0.499023 14.8748C0.499023 14.7926 0.51521 14.7113 0.546659 14.6353C0.578108 14.5594 0.624203 14.4904 0.682313 14.4323L7.11606 7.99981L0.682313 1.56731Z" fill="black"/>
</svg>
