<svg width="20" height="20" viewBox="0 0 20 20" fill="none" xmlns="http://www.w3.org/2000/svg">
<g clip-path="url(#clip0_674_546)">
<path d="M17.5 1.25C17.8315 1.25 18.1495 1.3817 18.3839 1.61612C18.6183 1.85054 18.75 2.16848 18.75 2.5V17.5C18.75 17.8315 18.6183 18.1495 18.3839 18.3839C18.1495 18.6183 17.8315 18.75 17.5 18.75H2.5C2.16848 18.75 1.85054 18.6183 1.61612 18.3839C1.3817 18.1495 1.25 17.8315 1.25 17.5V2.5C1.25 2.16848 1.3817 1.85054 1.61612 1.61612C1.85054 1.3817 2.16848 1.25 2.5 1.25H17.5ZM2.5 0C1.83696 0 1.20107 0.263392 0.732233 0.732233C0.263392 1.20107 0 1.83696 0 2.5L0 17.5C0 18.163 0.263392 18.7989 0.732233 19.2678C1.20107 19.7366 1.83696 20 2.5 20H17.5C18.163 20 18.7989 19.7366 19.2678 19.2678C19.7366 18.7989 20 18.163 20 17.5V2.5C20 1.83696 19.7366 1.20107 19.2678 0.732233C18.7989 0.263392 18.163 0 17.5 0L2.5 0Z" fill="black"/>
<path d="M5.80764 5.80752C5.8657 5.74931 5.93467 5.70314 6.0106 5.67163C6.08653 5.64012 6.16793 5.6239 6.25014 5.6239C6.33235 5.6239 6.41375 5.64012 6.48968 5.67163C6.56561 5.70314 6.63458 5.74931 6.69264 5.80752L10.0001 9.11627L13.3076 5.80752C13.3657 5.74941 13.4347 5.70331 13.5107 5.67186C13.5866 5.64042 13.668 5.62423 13.7501 5.62423C13.8323 5.62423 13.9137 5.64042 13.9896 5.67186C14.0655 5.70331 14.1345 5.74941 14.1926 5.80752C14.2507 5.86563 14.2968 5.93461 14.3283 6.01054C14.3597 6.08646 14.3759 6.16784 14.3759 6.25002C14.3759 6.3322 14.3597 6.41357 14.3283 6.4895C14.2968 6.56542 14.2507 6.63441 14.1926 6.69252L10.8839 10L14.1926 13.3075C14.2507 13.3656 14.2968 13.4346 14.3283 13.5105C14.3597 13.5865 14.3759 13.6678 14.3759 13.75C14.3759 13.8322 14.3597 13.9136 14.3283 13.9895C14.2968 14.0654 14.2507 14.1344 14.1926 14.1925C14.1345 14.2506 14.0655 14.2967 13.9896 14.3282C13.9137 14.3596 13.8323 14.3758 13.7501 14.3758C13.668 14.3758 13.5866 14.3596 13.5107 14.3282C13.4347 14.2967 13.3657 14.2506 13.3076 14.1925L10.0001 10.8838L6.69264 14.1925C6.63453 14.2506 6.56554 14.2967 6.48962 14.3282C6.4137 14.3596 6.33232 14.3758 6.25014 14.3758C6.16796 14.3758 6.08659 14.3596 6.01066 14.3282C5.93474 14.2967 5.86575 14.2506 5.80764 14.1925C5.74953 14.1344 5.70343 14.0654 5.67199 13.9895C5.64054 13.9136 5.62435 13.8322 5.62435 13.75C5.62435 13.6678 5.64054 13.5865 5.67199 13.5105C5.70343 13.4346 5.74953 13.3656 5.80764 13.3075L9.11639 10L5.80764 6.69252C5.74944 6.63446 5.70326 6.56549 5.67175 6.48956C5.64024 6.41363 5.62402 6.33223 5.62402 6.25002C5.62402 6.16781 5.64024 6.08641 5.67175 6.01048C5.70326 5.93454 5.74944 5.86558 5.80764 5.80752Z" fill="black"/>
</g>
<defs>
<clipPath id="clip0_674_546">
<rect width="20" height="20" fill="white"/>
</clipPath>
</defs>
</svg>
