<svg width="26" height="20" viewBox="0 0 26 20" fill="none" xmlns="http://www.w3.org/2000/svg">
<path d="M12.6164 15L14.2641 13.3523L12.105 11.1932L10.4573 12.8409V13.6364H11.8209V15H12.6164ZM18.8664 4.77273C18.7148 4.62121 18.5586 4.62595 18.3976 4.78693L13.426 9.75852C13.265 9.91951 13.2603 10.0758 13.4118 10.2273C13.5633 10.3788 13.7196 10.3741 13.8806 10.2131L18.8521 5.24148C19.0131 5.08049 19.0179 4.92424 18.8664 4.77273ZM20.0027 13.2102V15.9091C20.0027 17.036 19.6026 17.9995 18.8024 18.7997C18.0022 19.5999 17.0387 20 15.9118 20H4.09363C2.96673 20 2.00319 19.5999 1.203 18.7997C0.402811 17.9995 0.00271606 17.036 0.00271606 15.9091V4.09091C0.00271606 2.96402 0.402811 2.00047 1.203 1.20028C2.00319 0.400095 2.96673 0 4.09363 0H15.9118C16.5084 0 17.0624 0.118371 17.5737 0.355114C17.7158 0.421402 17.801 0.530303 17.8294 0.681818C17.8578 0.842803 17.8152 0.980114 17.7016 1.09375L17.0056 1.78977C16.873 1.92235 16.7215 1.96023 16.551 1.90341C16.3332 1.84659 16.1201 1.81818 15.9118 1.81818H4.09363C3.46863 1.81818 2.93359 2.04072 2.48851 2.4858C2.04344 2.93087 1.8209 3.46591 1.8209 4.09091V15.9091C1.8209 16.5341 2.04344 17.0691 2.48851 17.5142C2.93359 17.9593 3.46863 18.1818 4.09363 18.1818H15.9118C16.5368 18.1818 17.0718 17.9593 17.5169 17.5142C17.962 17.0691 18.1845 16.5341 18.1845 15.9091V14.1193C18.1845 13.9962 18.2271 13.892 18.3124 13.8068L19.2215 12.8977C19.3635 12.7557 19.5292 12.7225 19.7186 12.7983C19.908 12.8741 20.0027 13.0114 20.0027 13.2102ZM18.6391 2.72727L22.73 6.81818L13.1845 16.3636H9.09363V12.2727L18.6391 2.72727ZM24.9459 4.60227L23.6391 5.90909L19.5482 1.81818L20.855 0.511364C21.1201 0.246212 21.4421 0.113636 21.8209 0.113636C22.1997 0.113636 22.5217 0.246212 22.7868 0.511364L24.9459 2.67045C25.2111 2.93561 25.3436 3.25758 25.3436 3.63636C25.3436 4.01515 25.2111 4.33712 24.9459 4.60227Z" fill="black"/>
</svg>
