<svg width="30" height="30" viewBox="0 0 30 30" fill="none" xmlns="http://www.w3.org/2000/svg">
<path fill-rule="evenodd" clip-rule="evenodd" d="M0 3C0 1.34 1.342 0 3 0H27C28.658 0 30 1.34 30 3V20.986C30 22.646 28.658 23.986 27 23.986H19.536L15.832 29.536C15.7407 29.673 15.617 29.7853 15.4718 29.8629C15.3267 29.9406 15.1646 29.9812 15 29.9812C14.8354 29.9812 14.6733 29.9406 14.5282 29.8629C14.383 29.7853 14.2593 29.673 14.168 29.536L10.466 23.986H3C1.342 23.986 0 22.646 0 20.986V3ZM14.048 17.46L21.752 8.656L20.248 7.34L13.952 14.536L10.708 11.29L9.292 12.706L14.048 17.46Z" fill="#34A853"/>
</svg>
