<svg width="30" height="28" viewBox="0 0 30 28" fill="none" xmlns="http://www.w3.org/2000/svg">
<path d="M28.8332 23.3417L17.2582 2.04171C17.0278 1.6172 16.6871 1.26276 16.272 1.01578C15.8569 0.768797 15.3829 0.638428 14.8999 0.638428C14.4169 0.638428 13.9428 0.768797 13.5277 1.01578C13.1127 1.26276 12.7719 1.6172 12.5415 2.04171L0.974872 23.3417C0.746142 23.7513 0.628775 24.2136 0.634476 24.6827C0.640176 25.1518 0.768745 25.6111 1.00736 26.015C1.24598 26.4189 1.5863 26.7532 1.9944 26.9845C2.4025 27.2158 2.86411 27.3361 3.33321 27.3334H26.4749C26.9392 27.3329 27.3954 27.2119 27.799 26.9823C28.2026 26.7527 28.5397 26.4223 28.7773 26.0235C29.015 25.6246 29.1451 25.1708 29.1549 24.7066C29.1647 24.2424 29.0538 23.7836 28.8332 23.375V23.3417ZM13.8332 7.33337C13.8332 7.02395 13.9561 6.72721 14.1749 6.50841C14.3937 6.28962 14.6905 6.16671 14.9999 6.16671C15.3093 6.16671 15.606 6.28962 15.8248 6.50841C16.0436 6.72721 16.1665 7.02395 16.1665 7.33337V17.3334C16.1665 17.6428 16.0436 17.9395 15.8248 18.1583C15.606 18.3771 15.3093 18.5 14.9999 18.5C14.6905 18.5 14.3937 18.3771 14.1749 18.1583C13.9561 17.9395 13.8332 17.6428 13.8332 17.3334V7.33337ZM14.9999 23.875C14.7032 23.875 14.4132 23.7871 14.1665 23.6222C13.9198 23.4574 13.7276 23.2232 13.6141 22.9491C13.5005 22.675 13.4708 22.3734 13.5287 22.0824C13.5866 21.7914 13.7294 21.5242 13.9392 21.3144C14.149 21.1046 14.4163 20.9617 14.7072 20.9039C14.9982 20.846 15.2998 20.8757 15.5739 20.9892C15.848 21.1028 16.0823 21.295 16.2471 21.5417C16.4119 21.7884 16.4999 22.0784 16.4999 22.375C16.4999 22.572 16.4611 22.7671 16.3857 22.9491C16.3103 23.1311 16.1998 23.2964 16.0605 23.4357C15.9212 23.575 15.7559 23.6855 15.5739 23.7609C15.3919 23.8362 15.1969 23.875 14.9999 23.875Z" fill="#C5221F"/>
</svg>
