<svg width="27" height="24" viewBox="0 0 27 24" fill="none" xmlns="http://www.w3.org/2000/svg">
<path d="M15.2501 23.25C13.9584 23.25 12.7343 23.0467 11.5776 22.64C10.4218 22.2342 9.36469 21.6667 8.40636 20.9375C8.11469 20.7083 7.95844 20.4117 7.93761 20.0475C7.91678 19.6825 8.05219 19.3542 8.34386 19.0625C8.57302 18.8333 8.84386 18.7188 9.15636 18.7188C9.46886 18.7188 9.76052 18.8125 10.0314 19C10.7605 19.5417 11.5626 19.9688 12.4376 20.2812C13.3126 20.5938 14.2501 20.75 15.2501 20.75C17.6668 20.75 19.7293 19.8958 21.4376 18.1875C23.1459 16.4792 24.0001 14.4167 24.0001 12C24.0001 9.58333 23.1459 7.52083 21.4376 5.8125C19.7293 4.10417 17.6668 3.25 15.2501 3.25C12.8334 3.25 10.7709 4.10417 9.06261 5.8125C7.35428 7.52083 6.50011 9.58333 6.50011 12V12.2188L7.90636 10.8125C8.13553 10.5833 8.42177 10.4688 8.76511 10.4688C9.10927 10.4688 9.40636 10.5833 9.65636 10.8125C9.90636 11.0625 10.0314 11.3592 10.0314 11.7025C10.0314 12.0467 9.90636 12.3438 9.65636 12.5938L6.12511 16.125C6.00011 16.25 5.86469 16.3383 5.71886 16.39C5.57303 16.4425 5.41678 16.4688 5.25011 16.4688C5.08344 16.4688 4.92719 16.4425 4.78136 16.39C4.63553 16.3383 4.50011 16.25 4.37511 16.125L0.812609 12.5625C0.583442 12.3333 0.474275 12.0417 0.485109 11.6875C0.495109 11.3333 0.614692 11.0417 0.843859 10.8125C1.07303 10.5625 1.36469 10.4375 1.71886 10.4375C2.07303 10.4375 2.36469 10.5625 2.59386 10.8125L4.00011 12.25V12C4.00011 10.4375 4.29719 8.97375 4.89136 7.60875C5.48469 6.24458 6.28678 5.05708 7.29761 4.04625C8.30761 3.03625 9.49511 2.23417 10.8601 1.64C12.2243 1.04667 13.6876 0.75 15.2501 0.75C16.8126 0.75 18.2764 1.04667 19.6414 1.64C21.0055 2.23417 22.193 3.03625 23.2039 4.04625C24.2139 5.05708 25.0159 6.24458 25.6101 7.60875C26.2034 8.97375 26.5001 10.4375 26.5001 12C26.5001 15.125 25.4064 17.7812 23.2189 19.9688C21.0314 22.1562 18.3751 23.25 15.2501 23.25ZM12.7501 17C12.3959 17 12.0993 16.88 11.8601 16.64C11.6201 16.4008 11.5001 16.1042 11.5001 15.75V12C11.5001 11.6458 11.6201 11.3487 11.8601 11.1087C12.0993 10.8696 12.3959 10.75 12.7501 10.75V9.5C12.7501 8.8125 12.9951 8.22375 13.4851 7.73375C13.9743 7.24458 14.5626 7 15.2501 7C15.9376 7 16.5264 7.24458 17.0164 7.73375C17.5055 8.22375 17.7501 8.8125 17.7501 9.5V10.75C18.1043 10.75 18.4014 10.8696 18.6414 11.1087C18.8805 11.3487 19.0001 11.6458 19.0001 12V15.75C19.0001 16.1042 18.8805 16.4008 18.6414 16.64C18.4014 16.88 18.1043 17 17.7501 17H12.7501ZM14.0001 10.75H16.5001V9.5C16.5001 9.14583 16.3805 8.84875 16.1414 8.60875C15.9014 8.36958 15.6043 8.25 15.2501 8.25C14.8959 8.25 14.5993 8.36958 14.3601 8.60875C14.1201 8.84875 14.0001 9.14583 14.0001 9.5V10.75Z" fill="black"/>
</svg>
