<svg width="20" height="26" viewBox="0 0 20 26" fill="none" xmlns="http://www.w3.org/2000/svg">
<path d="M2.5 25.5H17.5C17.7225 25.5 17.935 25.4625 18.14 25.4075L13.4412 20.7087C12.422 21.3877 11.2247 21.75 10 21.75C6.55375 21.75 3.75 18.9463 3.75 15.5C3.75 12.0538 6.55375 9.25 10 9.25C13.4462 9.25 16.25 12.0538 16.25 15.5C16.2501 16.7247 15.8878 17.9221 15.2087 18.9412L19.9075 23.64C19.9625 23.435 20 23.2225 20 23V8L12.5 0.5H2.5C1.83696 0.5 1.20107 0.763392 0.732233 1.23223C0.263392 1.70107 0 2.33696 0 3V23C0 23.663 0.263392 24.2989 0.732233 24.7678C1.20107 25.2366 1.83696 25.5 2.5 25.5Z" fill="black"/>
</svg>
