<svg width="12" height="15" viewBox="0 0 12 15" fill="none" xmlns="http://www.w3.org/2000/svg">
<path d="M4.33341 11.3333H7.66675C8.12508 11.3333 8.50008 10.9583 8.50008 10.5V6.3333H9.82508C10.5667 6.3333 10.9417 5.4333 10.4167 4.9083L6.59175 1.0833C6.51465 1.00605 6.42308 0.94476 6.32227 0.902942C6.22146 0.861125 6.11339 0.8396 6.00425 0.8396C5.89511 0.8396 5.78704 0.861125 5.68623 0.902942C5.58542 0.94476 5.49384 1.00605 5.41675 1.0833L1.59175 4.9083C1.06675 5.4333 1.43341 6.3333 2.17508 6.3333H3.50008V10.5C3.50008 10.9583 3.87508 11.3333 4.33341 11.3333ZM1.00008 13H11.0001C11.4584 13 11.8334 13.375 11.8334 13.8333C11.8334 14.2916 11.4584 14.6666 11.0001 14.6666H1.00008C0.541748 14.6666 0.166748 14.2916 0.166748 13.8333C0.166748 13.375 0.541748 13 1.00008 13Z" fill="black"/>
</svg>
