<svg width="20" height="16" viewBox="0 0 20 16" fill="none" xmlns="http://www.w3.org/2000/svg">
<path d="M2.5 3C1.83696 3 1.20107 3.26339 0.732233 3.73223C0.263392 4.20107 0 4.83696 0 5.5L0 13C0 13.663 0.263392 14.2989 0.732233 14.7678C1.20107 15.2366 1.83696 15.5 2.5 15.5H17.5C18.163 15.5 18.7989 15.2366 19.2678 14.7678C19.7366 14.2989 20 13.663 20 13V5.5C20 4.83696 19.7366 4.20107 19.2678 3.73223C18.7989 3.26339 18.163 3 17.5 3H16.035C15.372 2.99986 14.7362 2.73637 14.2675 2.2675L13.2325 1.2325C12.7638 0.763627 12.128 0.500142 11.465 0.5H8.535C7.87201 0.500142 7.23623 0.763627 6.7675 1.2325L5.7325 2.2675C5.26377 2.73637 4.62799 2.99986 3.965 3H2.5ZM3.125 5.5C2.95924 5.5 2.80027 5.43415 2.68306 5.31694C2.56585 5.19973 2.5 5.04076 2.5 4.875C2.5 4.70924 2.56585 4.55027 2.68306 4.43306C2.80027 4.31585 2.95924 4.25 3.125 4.25C3.29076 4.25 3.44973 4.31585 3.56694 4.43306C3.68415 4.55027 3.75 4.70924 3.75 4.875C3.75 5.04076 3.68415 5.19973 3.56694 5.31694C3.44973 5.43415 3.29076 5.5 3.125 5.5ZM14.375 8.625C14.375 9.78532 13.9141 10.8981 13.0936 11.7186C12.2731 12.5391 11.1603 13 10 13C8.83968 13 7.72688 12.5391 6.90641 11.7186C6.08594 10.8981 5.625 9.78532 5.625 8.625C5.625 7.46468 6.08594 6.35188 6.90641 5.53141C7.72688 4.71094 8.83968 4.25 10 4.25C11.1603 4.25 12.2731 4.71094 13.0936 5.53141C13.9141 6.35188 14.375 7.46468 14.375 8.625Z" fill="black"/>
</svg>
