<svg width="16" height="14" viewBox="0 0 16 14" fill="none" xmlns="http://www.w3.org/2000/svg">
<path d="M15.4979 3.06066L12.5021 0.439344C12.1806 0.158039 11.7446 2.08024e-06 11.2899 0H1.71429C0.7675 0 0 0.671562 0 1.5V12.5C0 13.3284 0.7675 14 1.71429 14H14.2857C15.2325 14 16 13.3284 16 12.5V4.12131C16 3.72349 15.8194 3.34196 15.4979 3.06066ZM8 12C6.73764 12 5.71429 11.1046 5.71429 10C5.71429 8.89544 6.73764 8 8 8C9.26236 8 10.2857 8.89544 10.2857 10C10.2857 11.1046 9.26236 12 8 12ZM11.4286 2.48375V5.625C11.4286 5.83209 11.2367 6 11 6H2.71429C2.47761 6 2.28571 5.83209 2.28571 5.625V2.375C2.28571 2.16791 2.47761 2 2.71429 2H10.8757C10.9894 2 11.0984 2.0395 11.1788 2.10984L11.303 2.21859C11.3428 2.25341 11.3744 2.29475 11.396 2.34024C11.4175 2.38574 11.4286 2.4345 11.4286 2.48375Z" fill="white"/>
</svg>
